<svg 
    id="Layer_1" 
    enable-background="new 0 0 100 100" 
    height="60" 
    viewBox="0 0 512 512" 
    width="60" 
    xmlns="http://www.w3.org/2000/svg">
    <g>
        <path d="m336.334 384.533c79.145 0 143.533-64.382 143.533-143.518v-.015c-79.144 0-143.533 64.382-143.533 143.533z"/>
        <path d="m273.134 434.866h15c5.258 0 10.305.915 15 2.58v-22.913h-30z"/>
        <path d="m351.977 464.866h-21.423c1.665 4.695 2.58 9.741 2.58 15s-.915 10.305-2.58 15h21.846c8.525 0 15.389-7.111 14.983-15.725-.38-8.068-7.33-14.275-15.406-14.275z"/>
        <path d="m288.134 464.866h-49.267v-50.333h-30v50.333h-17.133c-8.284 0-15 6.716-15 15s6.716 15 15 15h96.4c8.284 0 15-6.716 15-15s-6.716-15-15-15z"/>
        <path d="m497 97.467h-18.301c-3.102-19.796-12.332-38.026-26.75-52.405-17.701-17.748-42.273-27.928-67.416-27.928-24.39 0-48.256 9.883-65.478 27.115-5.151 5.156-10.658 10.665-15.922 15.932v196.886c0 52.358-25.693 98.821-65.126 127.467h68.326c.001-95.687 77.847-173.534 173.534-173.534v-83.533h17.133c8.284 0 15-6.716 15-15s-6.715-15-15-15zm-112.466 30c-8.25 0-15-6.72-15-15s6.75-15 15-15 15 6.72 15 15-6.75 15-15 15z"/>
        <path d="m273.134 257.067v-166.886l-268.74 268.746c-4.29 4.29-5.573 10.741-3.252 16.347 2.322 5.605 7.792 9.26 13.858 9.26h130.667c70.286-.001 127.467-57.182 127.467-127.467z"/>
    </g>    
</svg>